<?xml version="1.0" encoding="utf-8"?>
<!-- Generator: Adobe Illustrator 19.1.0, SVG Export Plug-In . SVG Version: 6.00 Build 0)  -->
<svg version="1.1" xmlns="http://www.w3.org/2000/svg" xmlns:xlink="http://www.w3.org/1999/xlink" x="0px" y="0px" width="28px"
	 height="28px" viewBox="0 0 28 28" enable-background="new 0 0 28 28" xml:space="preserve">
<g id="Layer_1">
</g>
<g id="Layer_2">
	<g id="New_Symbol_9">
	</g>
	<g id="New_Symbol_71">
		<g id="New_Symbol_8">
		</g>
		<g id="FOOTER_3_">
			<g id="New_Symbol_176_3_">
				<g id="New_Symbol_173_3_">
				</g>
			</g>
		</g>
		<g id="Side_bar_2_">
		</g>
		<g id="global_nav">
		</g>
		<g id="New_Symbol_77">
		</g>
	</g>
	<g id="Side_bar">
	</g>
	<g id="FOOTER_2_">
		<g id="New_Symbol_176_2_">
			<g id="New_Symbol_173_2_">
			</g>
		</g>
	</g>
	<g id="FOOTER_1_">
		<g id="New_Symbol_176_1_">
			<g id="New_Symbol_173_1_">
			</g>
		</g>
	</g>
	<g id="FOOTER">
		<g id="New_Symbol_176">
			<g id="New_Symbol_173">
			</g>
		</g>
	</g>
	<g id="Side_bar_1_">
	</g>
	<g id="global_nav_2_">
	</g>
	<g id="global_nav_1_">
	</g>
	<g id="Side_bar_3_">
	</g>
	<g id="Side_bar_4_">
	</g>
	<g id="Side_bar_5_">
	</g>
	<path fill="#FFFFFF" d="M18.467,7V6.336C18.467,4.494,16.973,3,15.131,3h-2.195C11.093,3,9.6,4.494,9.6,6.336V7H7.067v3.136V14.4
		v4.264C7.067,20.506,8.56,22,10.402,22h7.262C19.507,22,21,20.506,21,18.664V14.4v-4.264V7H18.467z M12.936,4.267h2.195
		c1.141,0,2.069,0.928,2.069,2.069V7h-6.333V6.336C10.867,5.195,11.795,4.267,12.936,4.267z"/>
</g>
</svg>
