<?xml version="1.0" encoding="utf-8"?>
<!-- Generator: Adobe Illustrator 21.0.2, SVG Export Plug-In . SVG Version: 6.00 Build 0)  -->
<svg version="1.1" id="Layer_1" xmlns="http://www.w3.org/2000/svg" xmlns:xlink="http://www.w3.org/1999/xlink" x="0px" y="0px"
	 width="22.4px" height="22.4px" viewBox="0 0 22.4 22.4" style="enable-background:new 0 0 22.4 22.4;" xml:space="preserve">
<style type="text/css">
	.st0{fill:#FFFFFF;}
</style>
<title>icon_geolocation</title>
<g>
	<g>
		<g>
			<path class="st0" d="M22.4,2.2c0-1.2-0.9-2.1-2.1-2.2H2.4H2.2l0,0C1,0,0.1,0.9,0,2.1v0.1v17.8v0.1l0,0c0,1.2,1,2.2,2.2,2.2l0,0
				h0.1l0,0h10h7.8l0,0c1.2,0,2.2-1,2.2-2.4l0,0v-7.7v-2.2V2.2L22.4,2.2z M20.2,12.3v7.8h-7.8H2.2V2.2h10.1h7.8v7.8V12.3z"/>
		</g>
	</g>
	<g>
		<rect x="4.5" y="5.6" class="st0" width="2.2" height="2.2"/>
	</g>
	<g>
		<rect x="9" y="5.6" class="st0" width="9" height="2.2"/>
	</g>
	<g>
		<rect x="4.5" y="10.1" class="st0" width="2.2" height="2.2"/>
	</g>
	<g>
		<rect x="9" y="10.1" class="st0" width="9" height="2.2"/>
	</g>
	<g>
		<rect x="4.5" y="14.6" class="st0" width="2.2" height="2.2"/>
	</g>
	<g>
		<rect x="9" y="14.6" class="st0" width="9" height="2.2"/>
	</g>
</g>
</svg>
